<svg width="376" height="34" viewBox="0 0 376 34" fill="none" xmlns="http://www.w3.org/2000/svg">
<path d="M145.506 26.1313C135.469 31.72 123.746 35.8849 112.597 33.1225C98.9047 29.7296 89.8095 17.0652 77.9521 9.42231C65.8821 1.63773 50.6666 -0.770882 36.585 2.04828C22.5034 4.86748 9.62619 12.73 0 23.3832C8.62744 12.2059 21.3134 4.23009 35.1328 1.29047C48.9453 -1.64911 63.7856 0.483192 76.2168 7.18403C90.0079 14.6145 101.533 27.64 117.095 29.4321C128.01 30.6928 138.727 26.0255 148.232 20.5219C156.62 15.6654 164.717 10.0115 173.752 6.63129C177.911 4.6135 182.698 3.76038 187.512 3.85297C192.326 3.76044 197.112 4.61343 201.271 6.63129C210.306 10.0115 218.402 15.6655 226.79 20.5219C236.296 26.0257 247.013 30.6929 257.929 29.4321C273.491 27.6399 285.015 14.6144 298.807 7.18403C311.238 0.483219 326.077 -1.64906 339.89 1.29047C353.709 4.23005 366.396 12.2057 375.023 23.3832C365.397 12.7299 352.519 4.86745 338.438 2.04828C324.356 -0.770802 309.141 1.63779 297.071 9.42231C285.214 17.0652 276.119 29.7295 262.427 33.1225C251.278 35.885 239.555 31.72 229.518 26.1313C219.48 20.5425 210.187 13.4317 199.392 9.50043C195.623 8.13293 191.561 7.23239 187.512 6.89985C183.463 7.23237 179.4 8.13285 175.631 9.50043C164.836 13.4317 155.543 20.5426 145.506 26.1313Z" fill="#FFC400"/>
</svg>
