<svg width="376" height="34" viewBox="0 0 376 34" fill="none" xmlns="http://www.w3.org/2000/svg">
<path d="M229.518 7.86724C239.555 2.27851 251.278 -1.88641 262.427 0.876032C276.119 4.26892 285.214 16.9333 297.071 24.5762C309.141 32.3608 324.357 34.7694 338.438 31.9503C352.52 29.1311 365.397 21.2685 375.023 10.6153C366.396 21.7926 353.71 29.7684 339.891 32.7081C326.078 35.6476 311.238 33.5153 298.807 26.8145C285.016 19.3841 273.491 6.35853 257.929 4.56646C247.014 3.30577 236.297 7.973 226.791 13.4766C218.403 18.3331 210.306 23.9871 201.271 27.3672C197.112 29.385 192.326 30.2382 187.512 30.1456C182.698 30.2381 177.911 29.3851 173.752 27.3672C164.717 23.987 156.621 18.3331 148.233 13.4766C138.728 7.97287 128.01 3.30563 117.095 4.56646C101.533 6.35862 90.008 19.3841 76.2168 26.8145C63.7856 33.5153 48.9462 35.6476 35.1338 32.7081C21.3142 29.7685 8.6275 21.7928 0 10.6153C9.62625 21.2686 22.5043 29.1311 36.5859 31.9503C50.6675 34.7693 65.8822 32.3607 77.9521 24.5762C89.8095 16.9334 98.9048 4.26907 112.597 0.876032C123.746 -1.88647 135.469 2.2785 145.506 7.86724C155.543 13.456 164.837 20.5669 175.632 24.4981C179.401 25.8656 183.463 26.7661 187.512 27.0987C191.561 26.7662 195.624 25.8657 199.393 24.4981C210.187 20.5669 219.481 13.4559 229.518 7.86724Z" fill="#FFC400"/>
</svg>
